<?xml version="1.0" encoding="UTF-8"?>
<svg version="1.1" xmlns="http://www.w3.org/2000/svg" width="120" height="24">
<path d="M0 0 C3.18407594 1.79104272 4.52721167 3.20485599 6.375 6.3125 C7.21219504 9.91243865 6.89539601 12.41841597 6 16 C4.17660948 18.70567626 2.92542564 20.53728718 0 22 C-5.52269935 22.70256562 -9.62042946 23.0279153 -14.1875 19.625 C-16.90319048 15.45235149 -16.88356194 10.77601049 -16 6 C-11.94488084 -0.62336129 -7.29585986 -0.8272471 0 0 Z " fill="#3D3123" transform="translate(21,1)"/>
<path d="M0 0 C0 3.96 0 7.92 0 12 C-1.98 12.99 -1.98 12.99 -4 14 C-4.99 13.67 -5.98 13.34 -7 13 C-7.33 12.01 -7.66 11.02 -8 10 C-8.33 10.99 -8.66 11.98 -9 13 C-11.64 13 -14.28 13 -17 13 C-18.44672103 10.10655794 -18.38056583 7.19460336 -18.62109375 3.99609375 C-18.74613281 3.33738281 -18.87117188 2.67867187 -19 2 C-19.66 1.67 -20.32 1.34 -21 1 C-21 4.96 -21 8.92 -21 13 C-21.99 13 -22.98 13 -24 13 C-24 9.04 -24 5.08 -24 1 C-25.65 1 -27.3 1 -29 1 C-29 1.99 -29 2.98 -29 4 C-28.01 4 -27.02 4 -26 4 C-26 4.99 -26 5.98 -26 7 C-26.99 7 -27.98 7 -29 7 C-29 8.32 -29 9.64 -29 11 C-28.01 11 -27.02 11 -26 11 C-26 11.66 -26 12.32 -26 13 C-27.98 13 -29.96 13 -32 13 C-32 8.38 -32 3.76 -32 -1 C-30.48148437 -0.98839844 -28.96296875 -0.97679687 -27.3984375 -0.96484375 C-25.39062623 -0.95546145 -23.38281363 -0.94636172 -21.375 -0.9375 C-19.87646484 -0.92493164 -19.87646484 -0.92493164 -18.34765625 -0.91210938 C-14.29776148 -0.89869913 -10.53300435 -0.90314481 -6.5390625 -1.62890625 C-4 -2 -4 -2 0 0 Z M-8 0 C-7 2 -7 2 -7 2 Z M-4 1 C-5.20561184 1.98267859 -5.20561184 1.98267859 -5.09765625 3.84765625 C-5.08605469 4.57855469 -5.07445313 5.30945313 -5.0625 6.0625 C-5.041875 7.361875 -5.02125 8.66125 -5 10 C-4.01 10.495 -4.01 10.495 -3 11 C-3 7.7 -3 4.4 -3 1 C-3.33 1 -3.66 1 -4 1 Z " fill="#E5B31E" transform="translate(98,6)"/>
<path d="M0 0 C0.8971875 0.5259375 0.8971875 0.5259375 1.8125 1.0625 C1.8125 2.3825 1.8125 3.7025 1.8125 5.0625 C0.8225 5.0625 -0.1675 5.0625 -1.1875 5.0625 C-1.5175 4.4025 -1.8475 3.7425 -2.1875 3.0625 C-2.1875 5.7025 -2.1875 8.3425 -2.1875 11.0625 C-1.8575 10.0725 -1.5275 9.0825 -1.1875 8.0625 C-0.1975 8.0625 0.7925 8.0625 1.8125 8.0625 C1.8125 9.7125 1.8125 11.3625 1.8125 13.0625 C0.0625 14.1875 0.0625 14.1875 -2.1875 15.0625 C-4.4375 14.1875 -4.4375 14.1875 -6.1875 13.0625 C-6.5175 13.3925 -6.8475 13.7225 -7.1875 14.0625 C-11.85595228 14.20676614 -16.51615953 14.10458415 -21.1875 14.0625 C-21.1875 9.4425 -21.1875 4.8225 -21.1875 0.0625 C-15.85416667 0.0625 -10.52083333 0.0625 -5.1875 0.0625 C-2.1875 -0.9375 -2.1875 -0.9375 0 0 Z M-14.1875 1.0625 C-15.92495313 3.71978125 -16.19581972 4.95850355 -15.9375 8.1875 C-15.41866835 11.16847798 -15.41866835 11.16847798 -13.1875 13.0625 C-13.1875 9.1025 -13.1875 5.1425 -13.1875 1.0625 C-13.5175 1.0625 -13.8475 1.0625 -14.1875 1.0625 Z M-10.1875 2.0625 C-9.1875 5.0625 -9.1875 5.0625 -9.1875 5.0625 Z M-10.1875 8.0625 C-9.1875 12.0625 -9.1875 12.0625 -9.1875 12.0625 Z " fill="#2BB171" transform="translate(51.1875,4.9375)"/>
<path d="M0 0 C0 0.66 0 1.32 0 2 C0.66 2 1.32 2 2 2 C2.33 1.34 2.66 0.68 3 0 C4.32 0.99 5.64 1.98 7 3 C6.01 3.495 6.01 3.495 5 4 C5 4.99 5 5.98 5 7 C3.8553125 6.938125 3.8553125 6.938125 2.6875 6.875 C-0.22718416 6.77919176 -0.22718416 6.77919176 -3 9 C-3 10.32 -3 11.64 -3 13 C-0.03 13 2.94 13 6 13 C3 16 3 16 0 17 C0 17.66 0 18.32 0 19 C-1.32 19 -2.64 19 -4 19 C-4.33 19.66 -4.66 20.32 -5 21 C-8.75183427 17.43575744 -10.38170845 15.19617582 -10.5625 9.9375 C-10.37371132 6.5546109 -9.9731062 4.94828116 -8.375 1.875 C-5.39433949 -0.47815304 -3.70679491 -0.42122669 0 0 Z " fill="#44382E" transform="translate(15,2)"/>
<path d="M0 0 C1.98 0 3.96 0 6 0 C7 1 7 1 7.09765625 3.94140625 C7.08605469 5.13636719 7.07445313 6.33132813 7.0625 7.5625 C7.05347656 8.76003906 7.04445313 9.95757812 7.03515625 11.19140625 C7.02355469 12.11824219 7.01195313 13.04507812 7 14 C4.69 14 2.38 14 0 14 C0 9.38 0 4.76 0 0 Z M3 2 C4 6 4 6 4 6 Z " fill="#E5B31E" transform="translate(99,5)"/>
<path d="M0 0 C2.64 0 5.28 0 8 0 C7.649375 0.70125 7.29875 1.4025 6.9375 2.125 C5.51871685 6.47593499 6.58522143 9.75566429 8 14 C5.36 14 2.72 14 0 14 C0 9.38 0 4.76 0 0 Z " fill="#E5B31E" transform="translate(107,5)"/>
<path d="M0 0 C1.32 0.33 2.64 0.66 4 1 C4.99 0.67 5.98 0.34 7 0 C7 4.62 7 9.24 7 14 C6.01 14 5.02 14 4 14 C3.67 13.01 3.34 12.02 3 11 C2.67 11.99 2.34 12.98 2 14 C1.34 14 0.68 14 0 14 C0 9.38 0 4.76 0 0 Z " fill="#E5B31E" transform="translate(57,5)"/>
<path d="M0 0 C0 0.99 0 1.98 0 3 C-1.1446875 2.938125 -1.1446875 2.938125 -2.3125 2.875 C-5.22718416 2.77919176 -5.22718416 2.77919176 -8 5 C-8 6.32 -8 7.64 -8 9 C-5.03 9 -2.06 9 1 9 C-2 12 -2 12 -5 13 C-5 13.66 -5 14.32 -5 15 C-6.32 15 -7.64 15 -9 15 C-9.33 15.66 -9.66 16.32 -10 17 C-11.32 15.68 -12.64 14.36 -14 13 C-13.67 12.34 -13.34 11.68 -13 11 C-12.01 11.33 -11.02 11.66 -10 12 C-9.34 11.67 -8.68 11.34 -8 11 C-8.66 10.01 -9.32 9.02 -10 8 C-9.75 4.375 -9.75 4.375 -9 1 C-6.04335481 -0.4783226 -3.25770263 -0.06032783 0 0 Z " fill="#070806" transform="translate(20,6)"/>
<path d="M0 0 C8.85386819 -0.61891117 8.85386819 -0.61891117 13.125 1.6875 C15 4 15 4 15.3125 6.75 C15.1578125 7.86375 15.1578125 7.86375 15 9 C9.25 6.375 9.25 6.375 7 3 C5.68 3.33 4.36 3.66 3 4 C3.33 3.01 3.66 2.02 4 1 C2.68 1.33 1.36 1.66 0 2 C0 1.34 0 0.68 0 0 Z " fill="#4C3B2B" transform="translate(11,1)"/>
<path d="M0 0 C0.33 1.98 0.66 3.96 1 6 C-0.32 6 -1.64 6 -3 6 C-3.33 5.67 -3.66 5.34 -4 5 C-6.05396726 5.40929986 -6.05396726 5.40929986 -8 6 C-8.33 5.01 -8.66 4.02 -9 3 C-5.95442672 -0.04557328 -4.19574719 -0.1104144 0 0 Z " fill="#5F7330" transform="translate(20,8)"/>
<path d="M0 0 C0.309375 1.11375 0.61875 2.2275 0.9375 3.375 C1.82326483 6.7945155 1.82326483 6.7945155 3 9 C0.6875 9.625 0.6875 9.625 -2 10 C-2.99 9.34 -3.98 8.68 -5 8 C-5.1875 4.875 -5.1875 4.875 -5 2 C-1.125 0 -1.125 0 0 0 Z " fill="#4B3E32" transform="translate(10,9)"/>
<path d="M0 0 C1.98 0 3.96 0 6 0 C6 0.66 6 1.32 6 2 C6.66 2 7.32 2 8 2 C8.33 1.34 8.66 0.68 9 0 C10.32 0.99 11.64 1.98 13 3 C9.7 3.66 6.4 4.32 3 5 C3 4.34 3 3.68 3 3 C2.01 2.67 1.02 2.34 0 2 C0 1.34 0 0.68 0 0 Z " fill="#2E241B" transform="translate(9,2)"/>
<path d="M0 0 C0.556875 0.185625 1.11375 0.37125 1.6875 0.5625 C4.399133 1.07551165 6.34371039 0.6640724 9 0 C9 1.32 9 2.64 9 4 C7.68 4 6.36 4 5 4 C4.67 4.66 4.34 5.32 4 6 C2.62437146 4.71034824 1.29233607 3.37310707 0 2 C0 1.34 0 0.68 0 0 Z " fill="#221B15" transform="translate(6,17)"/>
</svg>
